<svg width="168" height="83" viewBox="0 0 168 83" fill="none" xmlns="http://www.w3.org/2000/svg">
<mask id="path-1-outside-1_5_31" maskUnits="userSpaceOnUse" x="1" y="20" width="150" height="49" fill="black">
<rect fill="white" x="1" y="20" width="150" height="49"/>
<path d="M18.816 50.744L2.88 22.392C3.17867 22.1787 3.62667 22.008 4.224 21.88C4.864 21.7093 5.46133 21.624 6.016 21.624C8.192 21.624 9.74933 22.5413 10.688 24.376L21.632 44.92L20.288 47.608L20.736 47.864L32.896 24.376C33.8773 22.5413 35.456 21.624 37.632 21.624C38.1867 21.624 38.7627 21.7093 39.36 21.88C40 22.008 40.4693 22.1787 40.768 22.392L24.832 50.744V62.584C24.832 64.2053 24.32 65.4427 23.296 66.296C22.272 67.1493 20.7787 67.576 18.816 67.576V50.744ZM50.729 67.576C47.0597 67.576 44.0943 66.5947 41.833 64.632C39.6143 62.6693 38.505 60.088 38.505 56.888C38.505 53.6453 39.6783 51.0427 42.025 49.08C44.3717 47.0747 47.465 46.072 51.305 46.072C55.401 46.072 58.7717 47.5227 61.417 50.424L61.673 50.168C61.2037 49.656 60.6703 49.1227 60.073 48.568V45.88C60.073 43.704 59.3903 42.0187 58.025 40.824C56.6597 39.6293 54.7183 39.032 52.201 39.032C47.721 39.032 44.521 40.8027 42.601 44.344C41.9183 44.0027 41.3423 43.5547 40.873 43C40.4463 42.4027 40.233 41.8053 40.233 41.208C40.233 40.056 40.809 38.968 41.961 37.944C43.113 36.8773 44.6277 36.024 46.505 35.384C48.425 34.744 50.4303 34.424 52.521 34.424C56.5743 34.424 59.753 35.4267 62.057 37.432C64.4037 39.4373 65.577 42.2107 65.577 45.752V63.288C65.577 64.7813 65.1503 65.8693 64.297 66.552C63.4437 67.2347 62.0997 67.576 60.265 67.576V64.568C61.161 63.6293 61.6517 63.0747 61.737 62.904L61.481 62.648C58.7077 65.9333 55.1237 67.576 50.729 67.576ZM51.689 63.16C54.3343 63.16 56.4037 62.6053 57.897 61.496C59.433 60.3867 60.201 58.8507 60.201 56.888C60.201 54.9253 59.4543 53.368 57.961 52.216C56.4677 51.064 54.4197 50.488 51.817 50.488C49.385 50.488 47.465 51.064 46.057 52.216C44.6917 53.3253 44.009 54.8827 44.009 56.888C44.009 58.8933 44.6703 60.4507 45.993 61.56C47.3583 62.6267 49.257 63.16 51.689 63.16ZM74.23 39.16C74.23 36.0027 76.0007 34.424 79.542 34.424V38.52C78.9873 39.1173 78.5393 39.6933 78.198 40.248L78.454 40.504C79.8193 38.584 81.27 37.0907 82.806 36.024C84.342 34.9573 86.1127 34.424 88.118 34.424C92.0007 34.424 94.6673 36.28 96.118 39.992C98.55 36.28 101.793 34.424 105.846 34.424C108.875 34.424 111.201 35.448 112.822 37.496C114.486 39.5013 115.318 42.1467 115.318 45.432V63.48C115.318 64.888 114.849 65.9333 113.91 66.616C113.014 67.256 111.649 67.576 109.814 67.576V45.752C109.814 43.704 109.387 42.104 108.534 40.952C107.681 39.8 106.337 39.224 104.502 39.224C102.582 39.224 100.939 39.8853 99.574 41.208C98.2087 42.488 97.526 44.216 97.526 46.392V63.48C97.526 64.888 97.078 65.9333 96.182 66.616C95.286 67.256 93.9207 67.576 92.086 67.576V45.752C92.086 43.704 91.6593 42.104 90.806 40.952C89.9527 39.8 88.6087 39.224 86.774 39.224C84.8113 39.224 83.1473 39.928 81.782 41.336C80.4167 42.744 79.734 44.472 79.734 46.52V63.48C79.734 64.888 79.2647 65.9333 78.326 66.616C77.43 67.256 76.0647 67.576 74.23 67.576V39.16ZM134.292 67.576C130.622 67.576 127.657 66.5947 125.396 64.632C123.177 62.6693 122.068 60.088 122.068 56.888C122.068 53.6453 123.241 51.0427 125.588 49.08C127.934 47.0747 131.028 46.072 134.868 46.072C138.964 46.072 142.334 47.5227 144.98 50.424L145.236 50.168C144.766 49.656 144.233 49.1227 143.636 48.568V45.88C143.636 43.704 142.953 42.0187 141.588 40.824C140.222 39.6293 138.281 39.032 135.764 39.032C131.284 39.032 128.084 40.8027 126.164 44.344C125.481 44.0027 124.905 43.5547 124.436 43C124.009 42.4027 123.796 41.8053 123.796 41.208C123.796 40.056 124.372 38.968 125.524 37.944C126.676 36.8773 128.19 36.024 130.068 35.384C131.988 34.744 133.993 34.424 136.083 34.424C140.137 34.424 143.316 35.4267 145.62 37.432C147.966 39.4373 149.14 42.2107 149.14 45.752V63.288C149.14 64.7813 148.713 65.8693 147.86 66.552C147.006 67.2347 145.662 67.576 143.828 67.576V64.568C144.724 63.6293 145.214 63.0747 145.3 62.904L145.044 62.648C142.27 65.9333 138.686 67.576 134.292 67.576ZM135.252 63.16C137.897 63.16 139.966 62.6053 141.46 61.496C142.996 60.3867 143.764 58.8507 143.764 56.888C143.764 54.9253 143.017 53.368 141.524 52.216C140.03 51.064 137.982 50.488 135.38 50.488C132.948 50.488 131.028 51.064 129.62 52.216C128.254 53.3253 127.572 54.8827 127.572 56.888C127.572 58.8933 128.233 60.4507 129.556 61.56C130.921 62.6267 132.82 63.16 135.252 63.16Z"/>
</mask>
<path d="M18.816 50.744L2.88 22.392C3.17867 22.1787 3.62667 22.008 4.224 21.88C4.864 21.7093 5.46133 21.624 6.016 21.624C8.192 21.624 9.74933 22.5413 10.688 24.376L21.632 44.92L20.288 47.608L20.736 47.864L32.896 24.376C33.8773 22.5413 35.456 21.624 37.632 21.624C38.1867 21.624 38.7627 21.7093 39.36 21.88C40 22.008 40.4693 22.1787 40.768 22.392L24.832 50.744V62.584C24.832 64.2053 24.32 65.4427 23.296 66.296C22.272 67.1493 20.7787 67.576 18.816 67.576V50.744ZM50.729 67.576C47.0597 67.576 44.0943 66.5947 41.833 64.632C39.6143 62.6693 38.505 60.088 38.505 56.888C38.505 53.6453 39.6783 51.0427 42.025 49.08C44.3717 47.0747 47.465 46.072 51.305 46.072C55.401 46.072 58.7717 47.5227 61.417 50.424L61.673 50.168C61.2037 49.656 60.6703 49.1227 60.073 48.568V45.88C60.073 43.704 59.3903 42.0187 58.025 40.824C56.6597 39.6293 54.7183 39.032 52.201 39.032C47.721 39.032 44.521 40.8027 42.601 44.344C41.9183 44.0027 41.3423 43.5547 40.873 43C40.4463 42.4027 40.233 41.8053 40.233 41.208C40.233 40.056 40.809 38.968 41.961 37.944C43.113 36.8773 44.6277 36.024 46.505 35.384C48.425 34.744 50.4303 34.424 52.521 34.424C56.5743 34.424 59.753 35.4267 62.057 37.432C64.4037 39.4373 65.577 42.2107 65.577 45.752V63.288C65.577 64.7813 65.1503 65.8693 64.297 66.552C63.4437 67.2347 62.0997 67.576 60.265 67.576V64.568C61.161 63.6293 61.6517 63.0747 61.737 62.904L61.481 62.648C58.7077 65.9333 55.1237 67.576 50.729 67.576ZM51.689 63.16C54.3343 63.16 56.4037 62.6053 57.897 61.496C59.433 60.3867 60.201 58.8507 60.201 56.888C60.201 54.9253 59.4543 53.368 57.961 52.216C56.4677 51.064 54.4197 50.488 51.817 50.488C49.385 50.488 47.465 51.064 46.057 52.216C44.6917 53.3253 44.009 54.8827 44.009 56.888C44.009 58.8933 44.6703 60.4507 45.993 61.56C47.3583 62.6267 49.257 63.16 51.689 63.16ZM74.23 39.16C74.23 36.0027 76.0007 34.424 79.542 34.424V38.52C78.9873 39.1173 78.5393 39.6933 78.198 40.248L78.454 40.504C79.8193 38.584 81.27 37.0907 82.806 36.024C84.342 34.9573 86.1127 34.424 88.118 34.424C92.0007 34.424 94.6673 36.28 96.118 39.992C98.55 36.28 101.793 34.424 105.846 34.424C108.875 34.424 111.201 35.448 112.822 37.496C114.486 39.5013 115.318 42.1467 115.318 45.432V63.48C115.318 64.888 114.849 65.9333 113.91 66.616C113.014 67.256 111.649 67.576 109.814 67.576V45.752C109.814 43.704 109.387 42.104 108.534 40.952C107.681 39.8 106.337 39.224 104.502 39.224C102.582 39.224 100.939 39.8853 99.574 41.208C98.2087 42.488 97.526 44.216 97.526 46.392V63.48C97.526 64.888 97.078 65.9333 96.182 66.616C95.286 67.256 93.9207 67.576 92.086 67.576V45.752C92.086 43.704 91.6593 42.104 90.806 40.952C89.9527 39.8 88.6087 39.224 86.774 39.224C84.8113 39.224 83.1473 39.928 81.782 41.336C80.4167 42.744 79.734 44.472 79.734 46.52V63.48C79.734 64.888 79.2647 65.9333 78.326 66.616C77.43 67.256 76.0647 67.576 74.23 67.576V39.16ZM134.292 67.576C130.622 67.576 127.657 66.5947 125.396 64.632C123.177 62.6693 122.068 60.088 122.068 56.888C122.068 53.6453 123.241 51.0427 125.588 49.08C127.934 47.0747 131.028 46.072 134.868 46.072C138.964 46.072 142.334 47.5227 144.98 50.424L145.236 50.168C144.766 49.656 144.233 49.1227 143.636 48.568V45.88C143.636 43.704 142.953 42.0187 141.588 40.824C140.222 39.6293 138.281 39.032 135.764 39.032C131.284 39.032 128.084 40.8027 126.164 44.344C125.481 44.0027 124.905 43.5547 124.436 43C124.009 42.4027 123.796 41.8053 123.796 41.208C123.796 40.056 124.372 38.968 125.524 37.944C126.676 36.8773 128.19 36.024 130.068 35.384C131.988 34.744 133.993 34.424 136.083 34.424C140.137 34.424 143.316 35.4267 145.62 37.432C147.966 39.4373 149.14 42.2107 149.14 45.752V63.288C149.14 64.7813 148.713 65.8693 147.86 66.552C147.006 67.2347 145.662 67.576 143.828 67.576V64.568C144.724 63.6293 145.214 63.0747 145.3 62.904L145.044 62.648C142.27 65.9333 138.686 67.576 134.292 67.576ZM135.252 63.16C137.897 63.16 139.966 62.6053 141.46 61.496C142.996 60.3867 143.764 58.8507 143.764 56.888C143.764 54.9253 143.017 53.368 141.524 52.216C140.03 51.064 137.982 50.488 135.38 50.488C132.948 50.488 131.028 51.064 129.62 52.216C128.254 53.3253 127.572 54.8827 127.572 56.888C127.572 58.8933 128.233 60.4507 129.556 61.56C130.921 62.6267 132.82 63.16 135.252 63.16Z" fill="url(#paint0_linear_5_31)"/>
<path d="M18.816 50.744H19.816V50.4822L19.6877 50.254L18.816 50.744ZM2.88 22.392L2.29876 21.5783L1.56862 22.0998L2.00827 22.882L2.88 22.392ZM4.224 21.88L4.43353 22.8578L4.45774 22.8526L4.48166 22.8462L4.224 21.88ZM10.688 24.376L9.79775 24.8315L9.80153 24.8388L9.80542 24.8462L10.688 24.376ZM21.632 44.92L22.5264 45.3672L22.7573 44.9055L22.5146 44.4498L21.632 44.92ZM20.288 47.608L19.3936 47.1608L18.9705 48.0069L19.7919 48.4762L20.288 47.608ZM20.736 47.864L20.2399 48.7322L21.1448 49.2494L21.624 48.3238L20.736 47.864ZM32.896 24.376L32.0141 23.9043L32.008 23.9162L32.896 24.376ZM39.36 21.88L39.0853 22.8415L39.1242 22.8526L39.1639 22.8606L39.36 21.88ZM40.768 22.392L41.6397 22.882L42.0794 22.0998L41.3492 21.5783L40.768 22.392ZM24.832 50.744L23.9603 50.254L23.832 50.4822V50.744H24.832ZM23.296 66.296L23.9362 67.0642L23.9362 67.0642L23.296 66.296ZM18.816 67.576H17.816V68.576H18.816V67.576ZM19.6877 50.254L3.75173 21.902L2.00827 22.882L17.9443 51.234L19.6877 50.254ZM3.46124 23.2057C3.59841 23.1077 3.89265 22.9737 4.43353 22.8578L4.01447 20.9022C3.36068 21.0423 2.75892 21.2496 2.29876 21.5783L3.46124 23.2057ZM4.48166 22.8462C5.05334 22.6938 5.56323 22.624 6.016 22.624V20.624C5.35944 20.624 4.67466 20.7249 3.96634 20.9138L4.48166 22.8462ZM6.016 22.624C6.96197 22.624 7.71223 22.8224 8.30846 23.1736C8.90158 23.523 9.40243 24.0588 9.79775 24.8315L11.5782 23.9205C11.0349 22.8585 10.2878 22.0183 9.32354 21.4504C8.36243 20.8842 7.24603 20.624 6.016 20.624V22.624ZM9.80542 24.8462L20.7494 45.3902L22.5146 44.4498L11.5706 23.9058L9.80542 24.8462ZM20.7376 44.4728L19.3936 47.1608L21.1824 48.0552L22.5264 45.3672L20.7376 44.4728ZM19.7919 48.4762L20.2399 48.7322L21.2321 46.9958L20.7841 46.7398L19.7919 48.4762ZM21.624 48.3238L33.784 24.8358L32.008 23.9162L19.848 47.4042L21.624 48.3238ZM33.7778 24.8477C34.1934 24.0706 34.711 23.5296 35.3184 23.1766C35.9282 22.8223 36.6865 22.624 37.632 22.624V20.624C36.4015 20.624 35.2824 20.8844 34.3136 21.4474C33.3423 22.0118 32.5799 22.8467 32.0142 23.9043L33.7778 24.8477ZM37.632 22.624C38.0834 22.624 38.5667 22.6934 39.0853 22.8415L39.6347 20.9185C38.9586 20.7253 38.29 20.624 37.632 20.624V22.624ZM39.1639 22.8606C39.7566 22.9791 40.0605 23.1155 40.1868 23.2057L41.3492 21.5783C40.8782 21.2418 40.2434 21.0369 39.5561 20.8994L39.1639 22.8606ZM39.8963 21.902L23.9603 50.254L25.7037 51.234L41.6397 22.882L39.8963 21.902ZM23.832 50.744V62.584H25.832V50.744H23.832ZM23.832 62.584C23.832 63.9791 23.4027 64.9054 22.6558 65.5278L23.9362 67.0642C25.2373 65.9799 25.832 64.4316 25.832 62.584H23.832ZM22.6558 65.5278C21.8795 66.1747 20.6519 66.576 18.816 66.576V68.576C20.9054 68.576 22.6645 68.124 23.9362 67.0642L22.6558 65.5278ZM19.816 67.576V50.744H17.816V67.576H19.816ZM41.833 64.632L41.1704 65.381L41.1775 65.3872L41.833 64.632ZM42.025 49.08L42.6666 49.8471L42.6747 49.8402L42.025 49.08ZM61.417 50.424L60.678 51.0978L61.3836 51.8716L62.1241 51.1311L61.417 50.424ZM61.673 50.168L62.3801 50.8751L63.0571 50.1981L62.4102 49.4923L61.673 50.168ZM60.073 48.568H59.073V49.0041L59.3926 49.3008L60.073 48.568ZM42.601 44.344L42.1538 45.2384L43.019 45.6711L43.4801 44.8206L42.601 44.344ZM40.873 43L40.0593 43.5812L40.0831 43.6146L40.1096 43.6459L40.873 43ZM41.961 37.944L42.6254 38.6914L42.633 38.6847L42.6404 38.6778L41.961 37.944ZM46.505 35.384L46.1888 34.4353L46.1823 34.4375L46.505 35.384ZM62.057 37.432L61.4004 38.1863L61.4073 38.1922L62.057 37.432ZM64.297 66.552L63.6723 65.7711L63.6723 65.7711L64.297 66.552ZM60.265 67.576H59.265V68.576H60.265V67.576ZM60.265 64.568L59.5416 63.8775L59.265 64.1673V64.568H60.265ZM61.737 62.904L62.6314 63.3512L62.9538 62.7065L62.4441 62.1969L61.737 62.904ZM61.481 62.648L62.1881 61.9409L61.4187 61.1715L60.7169 62.0029L61.481 62.648ZM57.897 61.496L57.3115 60.6852L57.3007 60.6933L57.897 61.496ZM57.961 52.216L57.3502 53.0078L57.3502 53.0078L57.961 52.216ZM46.057 52.216L46.6876 52.9921L46.6902 52.99L46.057 52.216ZM45.993 61.56L45.3504 62.3262L45.3637 62.3373L45.3774 62.348L45.993 61.56ZM50.729 66.576C47.244 66.576 44.5293 65.6481 42.4885 63.8768L41.1775 65.3872C43.6593 67.5412 46.8754 68.576 50.729 68.576V66.576ZM42.4956 63.883C40.5101 62.1267 39.505 59.8274 39.505 56.888H37.505C37.505 60.3486 38.7185 63.212 41.1704 65.381L42.4956 63.883ZM39.505 56.888C39.505 53.9212 40.5622 51.6071 42.6666 49.8471L41.3834 48.3129C38.7945 50.4782 37.505 53.3695 37.505 56.888H39.505ZM42.6747 49.8402C44.7993 48.0247 47.6431 47.072 51.305 47.072V45.072C47.2869 45.072 43.9441 46.1247 41.3753 48.3198L42.6747 49.8402ZM51.305 47.072C55.1335 47.072 58.2313 48.4142 60.678 51.0978L62.156 49.7502C59.3121 46.6311 55.6685 45.072 51.305 45.072V47.072ZM62.1241 51.1311L62.3801 50.8751L60.9659 49.4609L60.7099 49.7169L62.1241 51.1311ZM62.4102 49.4923C61.9199 48.9575 61.3672 48.4051 60.7535 47.8352L59.3926 49.3008C59.9735 49.8402 60.4874 50.3545 60.9358 50.8437L62.4102 49.4923ZM61.073 48.568V45.88H59.073V48.568H61.073ZM61.073 45.88C61.073 43.4786 60.3091 41.4938 58.6835 40.0714L57.3665 41.5766C58.4716 42.5435 59.073 43.9294 59.073 45.88H61.073ZM58.6835 40.0714C57.0759 38.6648 54.8668 38.032 52.201 38.032V40.032C54.5699 40.032 56.2434 40.5939 57.3665 41.5766L58.6835 40.0714ZM52.201 38.032C49.8294 38.032 47.7349 38.5012 45.9568 39.485C44.1732 40.472 42.7633 41.9466 41.7219 43.8674L43.4801 44.8206C44.3587 43.2001 45.5089 42.0187 46.9252 41.235C48.3471 40.4482 50.0926 40.032 52.201 40.032V38.032ZM43.0482 43.4496C42.4805 43.1657 42.0139 42.8002 41.6364 42.3541L40.1096 43.6459C40.6708 44.3092 41.3562 44.8396 42.1538 45.2384L43.0482 43.4496ZM41.6867 42.4188C41.3531 41.9516 41.233 41.5532 41.233 41.208H39.233C39.233 42.0574 39.5396 42.8537 40.0593 43.5812L41.6867 42.4188ZM41.233 41.208C41.233 40.4295 41.611 39.5931 42.6254 38.6914L41.2966 37.1966C40.007 38.3429 39.233 39.6825 39.233 41.208H41.233ZM42.6404 38.6778C43.6664 37.7277 45.0491 36.9368 46.8277 36.3305L46.1823 34.4375C44.2062 35.1112 42.5596 36.0269 41.2816 37.2102L42.6404 38.6778ZM46.8212 36.3327C48.6359 35.7278 50.5342 35.424 52.521 35.424V33.424C50.3264 33.424 48.2141 33.7602 46.1888 34.4353L46.8212 36.3327ZM52.521 35.424C56.413 35.424 59.3309 36.385 61.4005 38.1863L62.7135 36.6777C60.1751 34.4683 56.7356 33.424 52.521 33.424V35.424ZM61.4073 38.1922C63.4976 39.9785 64.577 42.4551 64.577 45.752H66.577C66.577 41.9662 65.3097 38.8962 62.7067 36.6718L61.4073 38.1922ZM64.577 45.752V63.288H66.577V45.752H64.577ZM64.577 63.288C64.577 64.5959 64.2093 65.3415 63.6723 65.7711L64.9217 67.3329C66.0914 66.3971 66.577 64.9668 66.577 63.288H64.577ZM63.6723 65.7711C63.0816 66.2437 62.0135 66.576 60.265 66.576V68.576C62.1858 68.576 63.8057 68.2257 64.9217 67.3329L63.6723 65.7711ZM61.265 67.576V64.568H59.265V67.576H61.265ZM60.9884 65.2585C61.4397 64.7857 61.7963 64.4018 62.054 64.1106C62.1824 63.9655 62.2926 63.8361 62.3801 63.7259C62.4515 63.6359 62.5586 63.4969 62.6314 63.3512L60.8426 62.4568C60.8728 62.3964 60.8865 62.3907 60.8139 62.4821C60.7574 62.5533 60.673 62.6532 60.556 62.7854C60.323 63.0488 59.9863 63.4116 59.5416 63.8775L60.9884 65.2585ZM62.4441 62.1969L62.1881 61.9409L60.7739 63.3551L61.0299 63.6111L62.4441 62.1969ZM60.7169 62.0029C58.1383 65.0575 54.8366 66.576 50.729 66.576V68.576C55.4107 68.576 59.277 66.8092 62.2451 63.2931L60.7169 62.0029ZM51.689 64.16C54.4613 64.16 56.7683 63.5802 58.4933 62.2987L57.3007 60.6933C56.039 61.6305 54.2074 62.16 51.689 62.16V64.16ZM58.4825 62.3067C60.2896 61.0015 61.201 59.1582 61.201 56.888H59.201C59.201 58.5432 58.5764 59.7718 57.3115 60.6853L58.4825 62.3067ZM61.201 56.888C61.201 54.63 60.322 52.7743 58.5718 51.4242L57.3502 53.0078C58.5867 53.9616 59.201 55.2206 59.201 56.888H61.201ZM58.5718 51.4242C56.8477 50.0942 54.558 49.488 51.817 49.488V51.488C54.2813 51.488 56.0876 52.0338 57.3502 53.0078L58.5718 51.4242ZM51.817 49.488C49.2321 49.488 47.0627 50.1011 45.4238 51.442L46.6902 52.99C47.8673 52.0269 49.5379 51.488 51.817 51.488V49.488ZM45.4264 51.4399C43.7929 52.7671 43.009 54.629 43.009 56.888H45.009C45.009 55.1364 45.5905 53.8835 46.6876 52.9921L45.4264 51.4399ZM43.009 56.888C43.009 59.1358 43.7634 60.9951 45.3504 62.3262L46.6356 60.7938C45.5773 59.9062 45.009 58.6509 45.009 56.888H43.009ZM45.3774 62.348C46.9773 63.598 49.1221 64.16 51.689 64.16V62.16C49.3919 62.16 47.7394 61.6554 46.6086 60.772L45.3774 62.348ZM79.542 34.424H80.542V33.424H79.542V34.424ZM79.542 38.52L80.2748 39.2005L80.542 38.9127V38.52H79.542ZM78.198 40.248L77.3463 39.7239L76.9324 40.3966L77.4909 40.9551L78.198 40.248ZM78.454 40.504L77.7469 41.2111L78.5834 42.0476L79.269 41.0835L78.454 40.504ZM82.806 36.024L82.2356 35.2026L82.2356 35.2026L82.806 36.024ZM96.118 39.992L95.1866 40.356L95.8922 42.1614L96.9545 40.54L96.118 39.992ZM112.822 37.496L112.038 38.1167L112.045 38.1257L112.052 38.1346L112.822 37.496ZM113.91 66.616L114.491 67.4298L114.498 67.4247L113.91 66.616ZM109.814 67.576H108.814V68.576H109.814V67.576ZM108.534 40.952L107.73 41.5472L107.73 41.5472L108.534 40.952ZM99.574 41.208L100.258 41.9375L100.264 41.9319L100.27 41.9262L99.574 41.208ZM96.182 66.616L96.7632 67.4297L96.7758 67.4208L96.788 67.4114L96.182 66.616ZM92.086 67.576H91.086V68.576H92.086V67.576ZM90.806 40.952L91.6096 40.3568L91.6096 40.3568L90.806 40.952ZM78.326 66.616L78.9073 67.4298L78.9142 67.4247L78.326 66.616ZM74.23 67.576H73.23V68.576H74.23V67.576ZM75.23 39.16C75.23 37.7671 75.6153 36.8966 76.2235 36.3544C76.8535 35.7927 77.899 35.424 79.542 35.424V33.424C77.6437 33.424 76.0332 33.8446 74.8925 34.8616C73.73 35.898 73.23 37.3956 73.23 39.16H75.23ZM78.542 34.424V38.52H80.542V34.424H78.542ZM78.8092 37.8395C78.2205 38.4735 77.7294 39.1015 77.3463 39.7239L79.0497 40.7721C79.3493 40.2852 79.7542 39.7611 80.2748 39.2005L78.8092 37.8395ZM77.4909 40.9551L77.7469 41.2111L79.1611 39.7969L78.9051 39.5409L77.4909 40.9551ZM79.269 41.0835C80.584 39.2342 81.9563 37.8315 83.3764 36.8454L82.2356 35.2026C80.5837 36.3498 79.0547 37.9337 77.639 39.9245L79.269 41.0835ZM83.3764 36.8454C84.7326 35.9036 86.301 35.424 88.118 35.424V33.424C85.9243 33.424 83.9514 34.0111 82.2356 35.2026L83.3764 36.8454ZM88.118 35.424C89.8958 35.424 91.3236 35.8467 92.4587 36.6368C93.5958 37.4282 94.5169 38.6424 95.1866 40.356L97.0494 39.628C96.2684 37.6296 95.1308 36.0598 93.6013 34.9952C92.0697 33.9293 90.2229 33.424 88.118 33.424V35.424ZM96.9545 40.54C99.2224 37.0784 102.166 35.424 105.846 35.424V33.424C101.419 33.424 97.8776 35.4816 95.2815 39.444L96.9545 40.54ZM105.846 35.424C108.625 35.424 110.638 36.3483 112.038 38.1167L113.606 36.8753C111.763 34.5477 109.126 33.424 105.846 33.424V35.424ZM112.052 38.1346C113.532 39.9177 114.318 42.3175 114.318 45.432H116.318C116.318 41.9758 115.44 39.085 113.592 36.8574L112.052 38.1346ZM114.318 45.432V63.48H116.318V45.432H114.318ZM114.318 63.48C114.318 64.6449 113.945 65.3538 113.322 65.8073L114.498 67.4247C115.752 66.5129 116.318 65.1311 116.318 63.48H114.318ZM113.329 65.8023C112.682 66.2643 111.566 66.576 109.814 66.576V68.576C111.731 68.576 113.346 68.2477 114.491 67.4297L113.329 65.8023ZM110.814 67.576V45.752H108.814V67.576H110.814ZM110.814 45.752C110.814 43.5785 110.363 41.7408 109.338 40.3568L107.73 41.5472C108.412 42.4672 108.814 43.8295 108.814 45.752H110.814ZM109.338 40.3568C108.244 38.8807 106.556 38.224 104.502 38.224V40.224C106.118 40.224 107.117 40.7193 107.73 41.5472L109.338 40.3568ZM104.502 38.224C102.325 38.224 100.432 38.9844 98.8782 40.4898L100.27 41.9262C101.447 40.7863 102.839 40.224 104.502 40.224V38.224ZM98.8901 40.4785C97.2898 41.9787 96.526 43.9887 96.526 46.392H98.526C98.526 44.4433 99.1275 42.9973 100.258 41.9375L98.8901 40.4785ZM96.526 46.392V63.48H98.526V46.392H96.526ZM96.526 63.48C96.526 64.6622 96.1623 65.3738 95.576 65.8206L96.788 67.4114C97.9937 66.4928 98.526 65.1138 98.526 63.48H96.526ZM95.6008 65.8023C94.954 66.2643 93.8379 66.576 92.086 66.576V68.576C94.0034 68.576 95.618 68.2477 96.7632 67.4297L95.6008 65.8023ZM93.086 67.576V45.752H91.086V67.576H93.086ZM93.086 45.752C93.086 43.5785 92.6348 41.7408 91.6096 40.3568L90.0024 41.5472C90.6839 42.4672 91.086 43.8295 91.086 45.752H93.086ZM91.6096 40.3568C90.5162 38.8807 88.8278 38.224 86.774 38.224V40.224C88.3896 40.224 89.3892 40.7193 90.0024 41.5472L91.6096 40.3568ZM86.774 38.224C84.541 38.224 82.6179 39.0375 81.0641 40.6399L82.4999 42.0321C83.6767 40.8185 85.0817 40.224 86.774 40.224V38.224ZM81.0641 40.6399C79.5092 42.2434 78.734 44.2249 78.734 46.52H80.734C80.734 44.7191 81.3242 43.2446 82.4999 42.0321L81.0641 40.6399ZM78.734 46.52V63.48H80.734V46.52H78.734ZM78.734 63.48C78.734 64.6449 78.3613 65.3538 77.7378 65.8073L78.9142 67.4247C80.168 66.5129 80.734 65.1311 80.734 63.48H78.734ZM77.7448 65.8023C77.098 66.2643 75.9819 66.576 74.23 66.576V68.576C76.1474 68.576 77.762 68.2477 78.9072 67.4297L77.7448 65.8023ZM75.23 67.576V39.16H73.23V67.576H75.23ZM125.396 64.632L124.733 65.381L124.74 65.3872L125.396 64.632ZM125.588 49.08L126.229 49.8471L126.237 49.8402L125.588 49.08ZM144.98 50.424L144.241 51.0978L144.946 51.8716L145.687 51.1311L144.98 50.424ZM145.236 50.168L145.943 50.8751L146.62 50.1981L145.973 49.4923L145.236 50.168ZM143.636 48.568H142.636V49.0041L142.955 49.3008L143.636 48.568ZM126.164 44.344L125.716 45.2384L126.582 45.6711L127.043 44.8206L126.164 44.344ZM124.436 43L123.622 43.5812L123.646 43.6146L123.672 43.6459L124.436 43ZM125.524 37.944L126.188 38.6914L126.195 38.6847L126.203 38.6778L125.524 37.944ZM130.068 35.384L129.751 34.4353L129.745 34.4375L130.068 35.384ZM145.62 37.432L144.963 38.1863L144.97 38.1922L145.62 37.432ZM147.86 66.552L147.235 65.7711L147.235 65.7711L147.86 66.552ZM143.828 67.576H142.828V68.576H143.828V67.576ZM143.828 64.568L143.104 63.8775L142.828 64.1673V64.568H143.828ZM145.3 62.904L146.194 63.3512L146.516 62.7065L146.007 62.1969L145.3 62.904ZM145.044 62.648L145.751 61.9409L144.981 61.1715L144.279 62.0029L145.044 62.648ZM141.46 61.496L140.874 60.6852L140.863 60.6933L141.46 61.496ZM141.524 52.216L140.913 53.0078L140.913 53.0078L141.524 52.216ZM129.62 52.216L130.25 52.9921L130.253 52.99L129.62 52.216ZM129.556 61.56L128.913 62.3262L128.926 62.3373L128.94 62.348L129.556 61.56ZM134.292 66.576C130.806 66.576 128.092 65.6481 126.051 63.8768L124.74 65.3872C127.222 67.5412 130.438 68.576 134.292 68.576V66.576ZM126.058 63.883C124.073 62.1267 123.068 59.8274 123.068 56.888H121.068C121.068 60.3486 122.281 63.212 124.733 65.381L126.058 63.883ZM123.068 56.888C123.068 53.9212 124.125 51.6071 126.229 49.8471L124.946 48.3129C122.357 50.4782 121.068 53.3695 121.068 56.888H123.068ZM126.237 49.8402C128.362 48.0247 131.206 47.072 134.868 47.072V45.072C130.849 45.072 127.507 46.1247 124.938 48.3198L126.237 49.8402ZM134.868 47.072C138.696 47.072 141.794 48.4142 144.241 51.0978L145.718 49.7502C142.875 46.6311 139.231 45.072 134.868 45.072V47.072ZM145.687 51.1311L145.943 50.8751L144.528 49.4609L144.272 49.7169L145.687 51.1311ZM145.973 49.4923C145.482 48.9575 144.93 48.4051 144.316 47.8352L142.955 49.3008C143.536 49.8402 144.05 50.3545 144.498 50.8437L145.973 49.4923ZM144.636 48.568V45.88H142.636V48.568H144.636ZM144.636 45.88C144.636 43.4786 143.872 41.4938 142.246 40.0714L140.929 41.5766C142.034 42.5435 142.636 43.9294 142.636 45.88H144.636ZM142.246 40.0714C140.638 38.6648 138.429 38.032 135.764 38.032V40.032C138.132 40.032 139.806 40.5939 140.929 41.5766L142.246 40.0714ZM135.764 38.032C133.392 38.032 131.297 38.5012 129.519 39.485C127.736 40.472 126.326 41.9466 125.284 43.8674L127.043 44.8206C127.921 43.2001 129.071 42.0187 130.488 41.235C131.91 40.4482 133.655 40.032 135.764 40.032V38.032ZM126.611 43.4496C126.043 43.1657 125.576 42.8002 125.199 42.3541L123.672 43.6459C124.233 44.3092 124.919 44.8396 125.716 45.2384L126.611 43.4496ZM125.249 42.4188C124.916 41.9516 124.796 41.5532 124.796 41.208H122.796C122.796 42.0574 123.102 42.8537 123.622 43.5812L125.249 42.4188ZM124.796 41.208C124.796 40.4295 125.173 39.5931 126.188 38.6914L124.859 37.1966C123.57 38.3429 122.796 39.6825 122.796 41.208H124.796ZM126.203 38.6778C127.229 37.7277 128.612 36.9368 130.39 36.3305L129.745 34.4375C127.769 35.1112 126.122 36.0269 124.844 37.2102L126.203 38.6778ZM130.384 36.3327C132.198 35.7278 134.097 35.424 136.083 35.424V33.424C133.889 33.424 131.777 33.7602 129.751 34.4353L130.384 36.3327ZM136.083 35.424C139.976 35.424 142.893 36.385 144.963 38.1863L146.276 36.6777C143.738 34.4683 140.298 33.424 136.083 33.424V35.424ZM144.97 38.1922C147.06 39.9785 148.14 42.4551 148.14 45.752H150.14C150.14 41.9662 148.872 38.8962 146.269 36.6718L144.97 38.1922ZM148.14 45.752V63.288H150.14V45.752H148.14ZM148.14 63.288C148.14 64.5959 147.772 65.3415 147.235 65.7711L148.484 67.3329C149.654 66.3971 150.14 64.9668 150.14 63.288H148.14ZM147.235 65.7711C146.644 66.2437 145.576 66.576 143.828 66.576V68.576C145.748 68.576 147.368 68.2257 148.484 67.3329L147.235 65.7711ZM144.828 67.576V64.568H142.828V67.576H144.828ZM144.551 65.2585C145.002 64.7857 145.359 64.4018 145.616 64.1106C145.745 63.9655 145.855 63.8361 145.943 63.7259C146.014 63.6359 146.121 63.4969 146.194 63.3512L144.405 62.4568C144.435 62.3964 144.449 62.3907 144.376 62.4821C144.32 62.5533 144.235 62.6532 144.119 62.7854C143.885 63.0488 143.549 63.4116 143.104 63.8775L144.551 65.2585ZM146.007 62.1969L145.751 61.9409L144.336 63.3551L144.592 63.6111L146.007 62.1969ZM144.279 62.0029C141.701 65.0575 138.399 66.576 134.292 66.576V68.576C138.973 68.576 142.84 66.8092 145.808 63.2931L144.279 62.0029ZM135.252 64.16C138.024 64.16 140.331 63.5802 142.056 62.2987L140.863 60.6933C139.601 61.6305 137.77 62.16 135.252 62.16V64.16ZM142.045 62.3067C143.852 61.0015 144.764 59.1582 144.764 56.888H142.764C142.764 58.5432 142.139 59.7718 140.874 60.6853L142.045 62.3067ZM144.764 56.888C144.764 54.63 143.884 52.7743 142.134 51.4242L140.913 53.0078C142.149 53.9616 142.764 55.2206 142.764 56.888H144.764ZM142.134 51.4242C140.41 50.0942 138.121 49.488 135.38 49.488V51.488C137.844 51.488 139.65 52.0338 140.913 53.0078L142.134 51.4242ZM135.38 49.488C132.795 49.488 130.625 50.1011 128.986 51.442L130.253 52.99C131.43 52.0269 133.1 51.488 135.38 51.488V49.488ZM128.989 51.4399C127.355 52.7671 126.572 54.629 126.572 56.888H128.572C128.572 55.1364 129.153 53.8835 130.25 52.9921L128.989 51.4399ZM126.572 56.888C126.572 59.1358 127.326 60.9951 128.913 62.3262L130.198 60.7938C129.14 59.9062 128.572 58.6509 128.572 56.888H126.572ZM128.94 62.348C130.54 63.598 132.685 64.16 135.252 64.16V62.16C132.954 62.16 131.302 61.6554 130.171 60.772L128.94 62.348Z" fill="#F5F5F5" mask="url(#path-1-outside-1_5_31)"/>
<mask id="path-3-outside-2_5_31" maskUnits="userSpaceOnUse" x="139" y="14" width="29" height="18" fill="black">
<rect fill="white" x="139" y="14" width="29" height="18"/>
<path d="M145.38 18.32H140.56C140.56 16.7733 141.26 16 142.66 16H152.88C152.88 17.5467 152.173 18.32 150.76 18.32H148.06V28.2C148.06 28.84 147.833 29.3333 147.38 29.68C146.927 30.0133 146.26 30.18 145.38 30.18V18.32ZM160.07 30.18C159.43 30.18 158.997 29.8867 158.77 29.3L153.67 16.08C153.803 16.0133 153.983 15.9533 154.21 15.9C154.437 15.8467 154.637 15.82 154.81 15.82C155.863 15.82 156.543 16.2467 156.85 17.1L159.93 25.72L159.45 27L159.67 27.08L163.27 17.1C163.59 16.2467 164.27 15.82 165.31 15.82C165.483 15.82 165.683 15.8467 165.91 15.9C166.137 15.9533 166.323 16.0133 166.47 16.08L161.37 29.3C161.263 29.58 161.097 29.8 160.87 29.96C160.657 30.1067 160.39 30.18 160.07 30.18Z"/>
</mask>
<path d="M145.38 18.32H140.56C140.56 16.7733 141.26 16 142.66 16H152.88C152.88 17.5467 152.173 18.32 150.76 18.32H148.06V28.2C148.06 28.84 147.833 29.3333 147.38 29.68C146.927 30.0133 146.26 30.18 145.38 30.18V18.32ZM160.07 30.18C159.43 30.18 158.997 29.8867 158.77 29.3L153.67 16.08C153.803 16.0133 153.983 15.9533 154.21 15.9C154.437 15.8467 154.637 15.82 154.81 15.82C155.863 15.82 156.543 16.2467 156.85 17.1L159.93 25.72L159.45 27L159.67 27.08L163.27 17.1C163.59 16.2467 164.27 15.82 165.31 15.82C165.483 15.82 165.683 15.8467 165.91 15.9C166.137 15.9533 166.323 16.0133 166.47 16.08L161.37 29.3C161.263 29.58 161.097 29.8 160.87 29.96C160.657 30.1067 160.39 30.18 160.07 30.18Z" fill="url(#paint1_linear_5_31)"/>
<path d="M145.38 18.32H146.38V17.32H145.38V18.32ZM140.56 18.32H139.56V19.32H140.56V18.32ZM152.88 16H153.88V15H152.88V16ZM148.06 18.32V17.32H147.06V18.32H148.06ZM147.38 29.68L147.972 30.4857L147.98 30.4801L147.987 30.4744L147.38 29.68ZM145.38 30.18H144.38V31.18H145.38V30.18ZM145.38 17.32H140.56V19.32H145.38V17.32ZM141.56 18.32C141.56 17.6775 141.708 17.3824 141.826 17.2511C141.928 17.1387 142.141 17 142.66 17V15C141.779 15 140.942 15.248 140.344 15.9089C139.762 16.5509 139.56 17.4158 139.56 18.32H141.56ZM142.66 17H152.88V15H142.66V17ZM151.88 16C151.88 16.6404 151.732 16.9341 151.612 17.0654C151.507 17.1797 151.288 17.32 150.76 17.32V19.32C151.645 19.32 152.486 19.0737 153.088 18.4146C153.675 17.7726 153.88 16.9063 153.88 16H151.88ZM150.76 17.32H148.06V19.32H150.76V17.32ZM147.06 18.32V28.2H149.06V18.32H147.06ZM147.06 28.2C147.06 28.5718 146.946 28.753 146.773 28.8856L147.987 30.4744C148.721 29.9137 149.06 29.1082 149.06 28.2H147.06ZM146.788 28.8743C146.578 29.0282 146.159 29.18 145.38 29.18V31.18C146.361 31.18 147.275 30.9985 147.972 30.4857L146.788 28.8743ZM146.38 30.18V18.32H144.38V30.18H146.38ZM158.77 29.3L157.837 29.6599L157.837 29.6604L158.77 29.3ZM153.67 16.08L153.223 15.1856L152.41 15.592L152.737 16.4399L153.67 16.08ZM154.21 15.9L154.439 16.8734L154.439 16.8734L154.21 15.9ZM156.85 17.1L157.792 16.7635L157.791 16.7618L156.85 17.1ZM159.93 25.72L160.866 26.0711L160.995 25.7283L160.872 25.3835L159.93 25.72ZM159.45 27L158.514 26.6489L158.159 27.5946L159.108 27.9398L159.45 27ZM159.67 27.08L159.328 28.0198L160.271 28.3624L160.611 27.4193L159.67 27.08ZM163.27 17.1L162.334 16.7488L162.329 16.7607L163.27 17.1ZM166.47 16.08L167.403 16.4399L167.743 15.5599L166.884 15.1696L166.47 16.08ZM161.37 29.3L160.437 28.9401L160.436 28.944L161.37 29.3ZM160.87 29.96L161.437 30.7841L161.447 30.777L160.87 29.96ZM160.07 29.18C159.905 29.18 159.843 29.1437 159.826 29.1319C159.81 29.121 159.758 29.0819 159.703 28.9396L157.837 29.6604C158.009 30.1048 158.287 30.5057 158.705 30.7881C159.12 31.0696 159.595 31.18 160.07 31.18V29.18ZM159.703 28.9401L154.603 15.7201L152.737 16.4399L157.837 29.6599L159.703 28.9401ZM154.117 16.9744C154.154 16.9562 154.251 16.9177 154.439 16.8734L153.981 14.9266C153.716 14.989 153.453 15.0705 153.223 15.1856L154.117 16.9744ZM154.439 16.8734C154.615 16.8321 154.735 16.82 154.81 16.82V14.82C154.539 14.82 154.259 14.8612 153.981 14.9266L154.439 16.8734ZM154.81 16.82C155.206 16.82 155.44 16.9004 155.579 16.9871C155.705 17.0661 155.821 17.1935 155.909 17.4382L157.791 16.7618C157.573 16.1532 157.196 15.6405 156.642 15.2929C156.1 14.953 155.467 14.82 154.81 14.82V16.82ZM155.908 17.4365L158.988 26.0565L160.872 25.3835L157.792 16.7635L155.908 17.4365ZM158.994 25.3689L158.514 26.6489L160.386 27.3511L160.866 26.0711L158.994 25.3689ZM159.108 27.9398L159.328 28.0198L160.012 26.1402L159.792 26.0602L159.108 27.9398ZM160.611 27.4193L164.211 17.4393L162.329 16.7607L158.729 26.7407L160.611 27.4193ZM164.206 17.4511C164.3 17.2006 164.422 17.0684 164.552 16.9871C164.692 16.8992 164.924 16.82 165.31 16.82V14.82C164.657 14.82 164.029 14.9541 163.489 15.2929C162.938 15.6383 162.56 16.1461 162.334 16.7489L164.206 17.4511ZM165.31 16.82C165.385 16.82 165.506 16.8321 165.681 16.8734L166.139 14.9266C165.861 14.8612 165.582 14.82 165.31 14.82V16.82ZM165.681 16.8734C165.87 16.9178 165.989 16.9597 166.056 16.9904L166.884 15.1696C166.658 15.067 166.404 14.9889 166.139 14.9266L165.681 16.8734ZM165.537 15.7201L160.437 28.9401L162.303 29.6599L167.403 16.4399L165.537 15.7201ZM160.436 28.944C160.394 29.0538 160.345 29.1069 160.293 29.143L161.447 30.777C161.849 30.4931 162.133 30.1062 162.305 29.656L160.436 28.944ZM160.304 29.136C160.293 29.1435 160.236 29.18 160.07 29.18V31.18C160.544 31.18 161.021 31.0699 161.437 30.784L160.304 29.136Z" fill="#F5F5F5" mask="url(#path-3-outside-2_5_31)"/>
<defs>
<linearGradient id="paint0_linear_5_31" x1="-22" y1="12" x2="279.972" y2="123.287" gradientUnits="userSpaceOnUse">
<stop stop-color="#AF2CFF"/>
<stop offset="0.802815" stop-color="#E4DBF2"/>
</linearGradient>
<linearGradient id="paint1_linear_5_31" x1="136" y1="12.759" x2="195.632" y2="25.5146" gradientUnits="userSpaceOnUse">
<stop stop-color="#AF2CFF"/>
<stop offset="0.802815" stop-color="#E4DBF2"/>
</linearGradient>
</defs>
</svg>
