<svg width="283" height="100" viewBox="0 0 283 100" fill="none" xmlns="http://www.w3.org/2000/svg">
<circle cx="50" cy="50" r="50" fill="url(#paint0_linear_5_33)"/>
<path d="M39.28 28.08C40.44 27.96 41.52 28 42.52 28.2C43.6 28.4 44.76 28.9 46 29.7C49.8 32.3 52.24 37.82 53.32 46.26C53.64 49.26 53.8 52.72 53.8 56.64C53.8 58.08 53.82 59.38 53.86 60.54L54.64 59.7C60.96 52.7 64.98 46.1 66.7 39.9C67.06 38.58 67 37.4 66.52 36.36C66.16 35.6 65.6 35.04 64.84 34.68C64.24 34.36 63.54 34.16 62.74 34.08C62.22 34.08 61.86 33.86 61.66 33.42C61.18 32.38 61.36 31.1 62.2 29.58C62.6 28.86 63.06 28.38 63.58 28.14C63.78 28.06 64.14 28.02 64.66 28.02C65.58 28.1 66.32 28.26 66.88 28.5C69.32 29.66 70.64 31.88 70.84 35.16C70.84 35.52 70.84 35.88 70.84 36.24C70.8 37.32 70.62 38.44 70.3 39.6C68.38 47.2 63.9 55.02 56.86 63.06C55.62 64.46 54.34 65.82 53.02 67.14C47.86 72.3 43.5 75.64 39.94 77.16C39.34 77.44 38.8 77.62 38.32 77.7C37.24 77.98 36.08 77.9 34.84 77.46C32.96 76.82 31.56 75.56 30.64 73.68C29.92 72.12 29.7 70.64 29.98 69.24C30.3 67.72 30.94 66.68 31.9 66.12C32.9 65.56 33.5 66.04 33.7 67.56C33.78 67.96 33.82 68.24 33.82 68.4C34.06 69.24 34.56 69.96 35.32 70.56C36.16 71.2 37.18 71.58 38.38 71.7C38.78 71.74 39.12 71.74 39.4 71.7C41.12 71.3 43.66 69.72 47.02 66.96L47.74 66.36V66C48.02 62.96 48.08 59.2 47.92 54.72C47.88 54.36 47.86 54.06 47.86 53.82C47.38 45.94 46.04 40.2 43.84 36.6C42.28 34.2 40.22 32.82 37.66 32.46L37.18 32.4L36.76 32.82C36.32 33.26 35.78 33.64 35.14 33.96C34.54 34.24 33.92 34.4 33.28 34.44H32.68L32.38 34.26C31.54 33.7 31.78 32.72 33.1 31.32C34.86 29.48 36.92 28.4 39.28 28.08Z" fill="white"/>
<mask id="path-3-outside-1_5_33" maskUnits="userSpaceOnUse" x="116" y="29" width="150" height="49" fill="black">
<rect fill="white" x="116" y="29" width="150" height="49"/>
<path d="M133.816 59.744L117.88 31.392C118.179 31.1787 118.627 31.008 119.224 30.88C119.864 30.7093 120.461 30.624 121.016 30.624C123.192 30.624 124.749 31.5413 125.688 33.376L136.632 53.92L135.288 56.608L135.736 56.864L147.896 33.376C148.877 31.5413 150.456 30.624 152.632 30.624C153.187 30.624 153.763 30.7093 154.36 30.88C155 31.008 155.469 31.1787 155.768 31.392L139.832 59.744V71.584C139.832 73.2053 139.32 74.4427 138.296 75.296C137.272 76.1493 135.779 76.576 133.816 76.576V59.744ZM165.729 76.576C162.06 76.576 159.094 75.5947 156.833 73.632C154.614 71.6693 153.505 69.088 153.505 65.888C153.505 62.6453 154.678 60.0427 157.025 58.08C159.372 56.0747 162.465 55.072 166.305 55.072C170.401 55.072 173.772 56.5227 176.417 59.424L176.673 59.168C176.204 58.656 175.67 58.1227 175.073 57.568V54.88C175.073 52.704 174.39 51.0187 173.025 49.824C171.66 48.6293 169.718 48.032 167.201 48.032C162.721 48.032 159.521 49.8027 157.601 53.344C156.918 53.0027 156.342 52.5547 155.873 52C155.446 51.4027 155.233 50.8053 155.233 50.208C155.233 49.056 155.809 47.968 156.961 46.944C158.113 45.8773 159.628 45.024 161.505 44.384C163.425 43.744 165.43 43.424 167.521 43.424C171.574 43.424 174.753 44.4267 177.057 46.432C179.404 48.4373 180.577 51.2107 180.577 54.752V72.288C180.577 73.7813 180.15 74.8693 179.297 75.552C178.444 76.2347 177.1 76.576 175.265 76.576V73.568C176.161 72.6293 176.652 72.0747 176.737 71.904L176.481 71.648C173.708 74.9333 170.124 76.576 165.729 76.576ZM166.689 72.16C169.334 72.16 171.404 71.6053 172.897 70.496C174.433 69.3867 175.201 67.8507 175.201 65.888C175.201 63.9253 174.454 62.368 172.961 61.216C171.468 60.064 169.42 59.488 166.817 59.488C164.385 59.488 162.465 60.064 161.057 61.216C159.692 62.3253 159.009 63.8827 159.009 65.888C159.009 67.8933 159.67 69.4507 160.993 70.56C162.358 71.6267 164.257 72.16 166.689 72.16ZM189.23 48.16C189.23 45.0027 191.001 43.424 194.542 43.424V47.52C193.987 48.1173 193.539 48.6933 193.198 49.248L193.454 49.504C194.819 47.584 196.27 46.0907 197.806 45.024C199.342 43.9573 201.113 43.424 203.118 43.424C207.001 43.424 209.667 45.28 211.118 48.992C213.55 45.28 216.793 43.424 220.846 43.424C223.875 43.424 226.201 44.448 227.822 46.496C229.486 48.5013 230.318 51.1467 230.318 54.432V72.48C230.318 73.888 229.849 74.9333 228.91 75.616C228.014 76.256 226.649 76.576 224.814 76.576V54.752C224.814 52.704 224.387 51.104 223.534 49.952C222.681 48.8 221.337 48.224 219.502 48.224C217.582 48.224 215.939 48.8853 214.574 50.208C213.209 51.488 212.526 53.216 212.526 55.392V72.48C212.526 73.888 212.078 74.9333 211.182 75.616C210.286 76.256 208.921 76.576 207.086 76.576V54.752C207.086 52.704 206.659 51.104 205.806 49.952C204.953 48.8 203.609 48.224 201.774 48.224C199.811 48.224 198.147 48.928 196.782 50.336C195.417 51.744 194.734 53.472 194.734 55.52V72.48C194.734 73.888 194.265 74.9333 193.326 75.616C192.43 76.256 191.065 76.576 189.23 76.576V48.16ZM249.292 76.576C245.622 76.576 242.657 75.5947 240.396 73.632C238.177 71.6693 237.068 69.088 237.068 65.888C237.068 62.6453 238.241 60.0427 240.588 58.08C242.934 56.0747 246.028 55.072 249.868 55.072C253.964 55.072 257.334 56.5227 259.98 59.424L260.236 59.168C259.766 58.656 259.233 58.1227 258.636 57.568V54.88C258.636 52.704 257.953 51.0187 256.588 49.824C255.222 48.6293 253.281 48.032 250.764 48.032C246.284 48.032 243.084 49.8027 241.164 53.344C240.481 53.0027 239.905 52.5547 239.436 52C239.009 51.4027 238.796 50.8053 238.796 50.208C238.796 49.056 239.372 47.968 240.524 46.944C241.676 45.8773 243.19 45.024 245.068 44.384C246.988 43.744 248.993 43.424 251.083 43.424C255.137 43.424 258.316 44.4267 260.62 46.432C262.966 48.4373 264.14 51.2107 264.14 54.752V72.288C264.14 73.7813 263.713 74.8693 262.86 75.552C262.006 76.2347 260.662 76.576 258.828 76.576V73.568C259.724 72.6293 260.214 72.0747 260.3 71.904L260.044 71.648C257.27 74.9333 253.686 76.576 249.292 76.576ZM250.252 72.16C252.897 72.16 254.966 71.6053 256.46 70.496C257.996 69.3867 258.764 67.8507 258.764 65.888C258.764 63.9253 258.017 62.368 256.524 61.216C255.03 60.064 252.982 59.488 250.38 59.488C247.948 59.488 246.028 60.064 244.62 61.216C243.254 62.3253 242.572 63.8827 242.572 65.888C242.572 67.8933 243.233 69.4507 244.556 70.56C245.921 71.6267 247.82 72.16 250.252 72.16Z"/>
</mask>
<path d="M133.816 59.744L117.88 31.392C118.179 31.1787 118.627 31.008 119.224 30.88C119.864 30.7093 120.461 30.624 121.016 30.624C123.192 30.624 124.749 31.5413 125.688 33.376L136.632 53.92L135.288 56.608L135.736 56.864L147.896 33.376C148.877 31.5413 150.456 30.624 152.632 30.624C153.187 30.624 153.763 30.7093 154.36 30.88C155 31.008 155.469 31.1787 155.768 31.392L139.832 59.744V71.584C139.832 73.2053 139.32 74.4427 138.296 75.296C137.272 76.1493 135.779 76.576 133.816 76.576V59.744ZM165.729 76.576C162.06 76.576 159.094 75.5947 156.833 73.632C154.614 71.6693 153.505 69.088 153.505 65.888C153.505 62.6453 154.678 60.0427 157.025 58.08C159.372 56.0747 162.465 55.072 166.305 55.072C170.401 55.072 173.772 56.5227 176.417 59.424L176.673 59.168C176.204 58.656 175.67 58.1227 175.073 57.568V54.88C175.073 52.704 174.39 51.0187 173.025 49.824C171.66 48.6293 169.718 48.032 167.201 48.032C162.721 48.032 159.521 49.8027 157.601 53.344C156.918 53.0027 156.342 52.5547 155.873 52C155.446 51.4027 155.233 50.8053 155.233 50.208C155.233 49.056 155.809 47.968 156.961 46.944C158.113 45.8773 159.628 45.024 161.505 44.384C163.425 43.744 165.43 43.424 167.521 43.424C171.574 43.424 174.753 44.4267 177.057 46.432C179.404 48.4373 180.577 51.2107 180.577 54.752V72.288C180.577 73.7813 180.15 74.8693 179.297 75.552C178.444 76.2347 177.1 76.576 175.265 76.576V73.568C176.161 72.6293 176.652 72.0747 176.737 71.904L176.481 71.648C173.708 74.9333 170.124 76.576 165.729 76.576ZM166.689 72.16C169.334 72.16 171.404 71.6053 172.897 70.496C174.433 69.3867 175.201 67.8507 175.201 65.888C175.201 63.9253 174.454 62.368 172.961 61.216C171.468 60.064 169.42 59.488 166.817 59.488C164.385 59.488 162.465 60.064 161.057 61.216C159.692 62.3253 159.009 63.8827 159.009 65.888C159.009 67.8933 159.67 69.4507 160.993 70.56C162.358 71.6267 164.257 72.16 166.689 72.16ZM189.23 48.16C189.23 45.0027 191.001 43.424 194.542 43.424V47.52C193.987 48.1173 193.539 48.6933 193.198 49.248L193.454 49.504C194.819 47.584 196.27 46.0907 197.806 45.024C199.342 43.9573 201.113 43.424 203.118 43.424C207.001 43.424 209.667 45.28 211.118 48.992C213.55 45.28 216.793 43.424 220.846 43.424C223.875 43.424 226.201 44.448 227.822 46.496C229.486 48.5013 230.318 51.1467 230.318 54.432V72.48C230.318 73.888 229.849 74.9333 228.91 75.616C228.014 76.256 226.649 76.576 224.814 76.576V54.752C224.814 52.704 224.387 51.104 223.534 49.952C222.681 48.8 221.337 48.224 219.502 48.224C217.582 48.224 215.939 48.8853 214.574 50.208C213.209 51.488 212.526 53.216 212.526 55.392V72.48C212.526 73.888 212.078 74.9333 211.182 75.616C210.286 76.256 208.921 76.576 207.086 76.576V54.752C207.086 52.704 206.659 51.104 205.806 49.952C204.953 48.8 203.609 48.224 201.774 48.224C199.811 48.224 198.147 48.928 196.782 50.336C195.417 51.744 194.734 53.472 194.734 55.52V72.48C194.734 73.888 194.265 74.9333 193.326 75.616C192.43 76.256 191.065 76.576 189.23 76.576V48.16ZM249.292 76.576C245.622 76.576 242.657 75.5947 240.396 73.632C238.177 71.6693 237.068 69.088 237.068 65.888C237.068 62.6453 238.241 60.0427 240.588 58.08C242.934 56.0747 246.028 55.072 249.868 55.072C253.964 55.072 257.334 56.5227 259.98 59.424L260.236 59.168C259.766 58.656 259.233 58.1227 258.636 57.568V54.88C258.636 52.704 257.953 51.0187 256.588 49.824C255.222 48.6293 253.281 48.032 250.764 48.032C246.284 48.032 243.084 49.8027 241.164 53.344C240.481 53.0027 239.905 52.5547 239.436 52C239.009 51.4027 238.796 50.8053 238.796 50.208C238.796 49.056 239.372 47.968 240.524 46.944C241.676 45.8773 243.19 45.024 245.068 44.384C246.988 43.744 248.993 43.424 251.083 43.424C255.137 43.424 258.316 44.4267 260.62 46.432C262.966 48.4373 264.14 51.2107 264.14 54.752V72.288C264.14 73.7813 263.713 74.8693 262.86 75.552C262.006 76.2347 260.662 76.576 258.828 76.576V73.568C259.724 72.6293 260.214 72.0747 260.3 71.904L260.044 71.648C257.27 74.9333 253.686 76.576 249.292 76.576ZM250.252 72.16C252.897 72.16 254.966 71.6053 256.46 70.496C257.996 69.3867 258.764 67.8507 258.764 65.888C258.764 63.9253 258.017 62.368 256.524 61.216C255.03 60.064 252.982 59.488 250.38 59.488C247.948 59.488 246.028 60.064 244.62 61.216C243.254 62.3253 242.572 63.8827 242.572 65.888C242.572 67.8933 243.233 69.4507 244.556 70.56C245.921 71.6267 247.82 72.16 250.252 72.16Z" fill="url(#paint1_linear_5_33)"/>
<path d="M133.816 59.744H134.816V59.4822L134.688 59.254L133.816 59.744ZM117.88 31.392L117.299 30.5783L116.569 31.0998L117.008 31.882L117.88 31.392ZM119.224 30.88L119.434 31.8578L119.458 31.8526L119.482 31.8462L119.224 30.88ZM125.688 33.376L124.798 33.8315L124.802 33.8388L124.805 33.8462L125.688 33.376ZM136.632 53.92L137.526 54.3672L137.757 53.9055L137.515 53.4498L136.632 53.92ZM135.288 56.608L134.394 56.1608L133.971 57.0069L134.792 57.4762L135.288 56.608ZM135.736 56.864L135.24 57.7322L136.145 58.2494L136.624 57.3238L135.736 56.864ZM147.896 33.376L147.014 32.9043L147.008 32.9162L147.896 33.376ZM154.36 30.88L154.085 31.8415L154.124 31.8526L154.164 31.8606L154.36 30.88ZM155.768 31.392L156.64 31.882L157.079 31.0998L156.349 30.5783L155.768 31.392ZM139.832 59.744L138.96 59.254L138.832 59.4822V59.744H139.832ZM138.296 75.296L138.936 76.0642L138.936 76.0642L138.296 75.296ZM133.816 76.576H132.816V77.576H133.816V76.576ZM134.688 59.254L118.752 30.902L117.008 31.882L132.944 60.234L134.688 59.254ZM118.461 32.2057C118.598 32.1077 118.893 31.9737 119.434 31.8578L119.014 29.9022C118.361 30.0423 117.759 30.2496 117.299 30.5783L118.461 32.2057ZM119.482 31.8462C120.053 31.6938 120.563 31.624 121.016 31.624V29.624C120.359 29.624 119.675 29.7249 118.966 29.9138L119.482 31.8462ZM121.016 31.624C121.962 31.624 122.712 31.8224 123.308 32.1736C123.902 32.523 124.402 33.0588 124.798 33.8315L126.578 32.9205C126.035 31.8585 125.288 31.0183 124.324 30.4504C123.362 29.8842 122.246 29.624 121.016 29.624V31.624ZM124.805 33.8462L135.749 54.3902L137.515 53.4498L126.571 32.9058L124.805 33.8462ZM135.738 53.4728L134.394 56.1608L136.182 57.0552L137.526 54.3672L135.738 53.4728ZM134.792 57.4762L135.24 57.7322L136.232 55.9958L135.784 55.7398L134.792 57.4762ZM136.624 57.3238L148.784 33.8358L147.008 32.9162L134.848 56.4042L136.624 57.3238ZM148.778 33.8477C149.193 33.0706 149.711 32.5296 150.318 32.1766C150.928 31.8223 151.687 31.624 152.632 31.624V29.624C151.401 29.624 150.282 29.8844 149.314 30.4474C148.342 31.0118 147.58 31.8467 147.014 32.9043L148.778 33.8477ZM152.632 31.624C153.083 31.624 153.567 31.6934 154.085 31.8415L154.635 29.9185C153.959 29.7253 153.29 29.624 152.632 29.624V31.624ZM154.164 31.8606C154.757 31.9791 155.061 32.1155 155.187 32.2057L156.349 30.5783C155.878 30.2418 155.243 30.0369 154.556 29.8994L154.164 31.8606ZM154.896 30.902L138.96 59.254L140.704 60.234L156.64 31.882L154.896 30.902ZM138.832 59.744V71.584H140.832V59.744H138.832ZM138.832 71.584C138.832 72.9791 138.403 73.9054 137.656 74.5278L138.936 76.0642C140.237 74.9799 140.832 73.4316 140.832 71.584H138.832ZM137.656 74.5278C136.88 75.1747 135.652 75.576 133.816 75.576V77.576C135.905 77.576 137.664 77.124 138.936 76.0642L137.656 74.5278ZM134.816 76.576V59.744H132.816V76.576H134.816ZM156.833 73.632L156.17 74.381L156.178 74.3872L156.833 73.632ZM157.025 58.08L157.667 58.8471L157.675 58.8402L157.025 58.08ZM176.417 59.424L175.678 60.0978L176.384 60.8716L177.124 60.1311L176.417 59.424ZM176.673 59.168L177.38 59.8751L178.057 59.1981L177.41 58.4923L176.673 59.168ZM175.073 57.568H174.073V58.0041L174.393 58.3008L175.073 57.568ZM157.601 53.344L157.154 54.2384L158.019 54.6711L158.48 53.8206L157.601 53.344ZM155.873 52L155.059 52.5812L155.083 52.6146L155.11 52.6459L155.873 52ZM156.961 46.944L157.625 47.6914L157.633 47.6847L157.64 47.6778L156.961 46.944ZM161.505 44.384L161.189 43.4353L161.182 43.4375L161.505 44.384ZM177.057 46.432L176.4 47.1863L176.407 47.1922L177.057 46.432ZM179.297 75.552L178.672 74.7711L178.672 74.7711L179.297 75.552ZM175.265 76.576H174.265V77.576H175.265V76.576ZM175.265 73.568L174.542 72.8775L174.265 73.1673V73.568H175.265ZM176.737 71.904L177.631 72.3512L177.954 71.7065L177.444 71.1969L176.737 71.904ZM176.481 71.648L177.188 70.9409L176.419 70.1715L175.717 71.0029L176.481 71.648ZM172.897 70.496L172.311 69.6852L172.301 69.6933L172.897 70.496ZM172.961 61.216L172.35 62.0078L172.35 62.0078L172.961 61.216ZM161.057 61.216L161.688 61.9921L161.69 61.99L161.057 61.216ZM160.993 70.56L160.35 71.3262L160.364 71.3373L160.377 71.348L160.993 70.56ZM165.729 75.576C162.244 75.576 159.529 74.6481 157.488 72.8768L156.178 74.3872C158.659 76.5412 161.875 77.576 165.729 77.576V75.576ZM157.496 72.883C155.51 71.1267 154.505 68.8274 154.505 65.888H152.505C152.505 69.3486 153.719 72.212 156.17 74.381L157.496 72.883ZM154.505 65.888C154.505 62.9212 155.562 60.6071 157.667 58.8471L156.383 57.3129C153.794 59.4782 152.505 62.3695 152.505 65.888H154.505ZM157.675 58.8402C159.799 57.0247 162.643 56.072 166.305 56.072V54.072C162.287 54.072 158.944 55.1247 156.375 57.3198L157.675 58.8402ZM166.305 56.072C170.134 56.072 173.231 57.4142 175.678 60.0978L177.156 58.7502C174.312 55.6311 170.668 54.072 166.305 54.072V56.072ZM177.124 60.1311L177.38 59.8751L175.966 58.4609L175.71 58.7169L177.124 60.1311ZM177.41 58.4923C176.92 57.9575 176.367 57.4051 175.753 56.8352L174.393 58.3008C174.973 58.8402 175.487 59.3545 175.936 59.8437L177.41 58.4923ZM176.073 57.568V54.88H174.073V57.568H176.073ZM176.073 54.88C176.073 52.4786 175.309 50.4938 173.684 49.0714L172.366 50.5766C173.472 51.5435 174.073 52.9294 174.073 54.88H176.073ZM173.684 49.0714C172.076 47.6648 169.867 47.032 167.201 47.032V49.032C169.57 49.032 171.243 49.5939 172.366 50.5766L173.684 49.0714ZM167.201 47.032C164.829 47.032 162.735 47.5012 160.957 48.485C159.173 49.472 157.763 50.9466 156.722 52.8674L158.48 53.8206C159.359 52.2001 160.509 51.0187 161.925 50.235C163.347 49.4482 165.093 49.032 167.201 49.032V47.032ZM158.048 52.4496C157.48 52.1657 157.014 51.8002 156.636 51.3541L155.11 52.6459C155.671 53.3092 156.356 53.8396 157.154 54.2384L158.048 52.4496ZM156.687 51.4188C156.353 50.9516 156.233 50.5532 156.233 50.208H154.233C154.233 51.0574 154.54 51.8537 155.059 52.5812L156.687 51.4188ZM156.233 50.208C156.233 49.4295 156.611 48.5931 157.625 47.6914L156.297 46.1966C155.007 47.3429 154.233 48.6825 154.233 50.208H156.233ZM157.64 47.6778C158.666 46.7277 160.049 45.9368 161.828 45.3305L161.182 43.4375C159.206 44.1112 157.56 45.0269 156.282 46.2102L157.64 47.6778ZM161.821 45.3327C163.636 44.7278 165.534 44.424 167.521 44.424V42.424C165.326 42.424 163.214 42.7602 161.189 43.4353L161.821 45.3327ZM167.521 44.424C171.413 44.424 174.331 45.385 176.4 47.1863L177.714 45.6777C175.175 43.4683 171.736 42.424 167.521 42.424V44.424ZM176.407 47.1922C178.498 48.9785 179.577 51.4551 179.577 54.752H181.577C181.577 50.9662 180.31 47.8962 177.707 45.6718L176.407 47.1922ZM179.577 54.752V72.288H181.577V54.752H179.577ZM179.577 72.288C179.577 73.5959 179.209 74.3415 178.672 74.7711L179.922 76.3329C181.091 75.3971 181.577 73.9668 181.577 72.288H179.577ZM178.672 74.7711C178.082 75.2437 177.014 75.576 175.265 75.576V77.576C177.186 77.576 178.806 77.2257 179.922 76.3329L178.672 74.7711ZM176.265 76.576V73.568H174.265V76.576H176.265ZM175.988 74.2585C176.44 73.7857 176.796 73.4018 177.054 73.1106C177.182 72.9655 177.293 72.8361 177.38 72.7259C177.452 72.6359 177.559 72.4969 177.631 72.3512L175.843 71.4568C175.873 71.3964 175.886 71.3907 175.814 71.4821C175.757 71.5533 175.673 71.6532 175.556 71.7854C175.323 72.0488 174.986 72.4116 174.542 72.8775L175.988 74.2585ZM177.444 71.1969L177.188 70.9409L175.774 72.3551L176.03 72.6111L177.444 71.1969ZM175.717 71.0029C173.138 74.0575 169.837 75.576 165.729 75.576V77.576C170.411 77.576 174.277 75.8092 177.245 72.2931L175.717 71.0029ZM166.689 73.16C169.461 73.16 171.768 72.5802 173.493 71.2987L172.301 69.6933C171.039 70.6305 169.207 71.16 166.689 71.16V73.16ZM173.482 71.3067C175.29 70.0015 176.201 68.1582 176.201 65.888H174.201C174.201 67.5432 173.576 68.7718 172.312 69.6853L173.482 71.3067ZM176.201 65.888C176.201 63.63 175.322 61.7743 173.572 60.4242L172.35 62.0078C173.587 62.9616 174.201 64.2206 174.201 65.888H176.201ZM173.572 60.4242C171.848 59.0942 169.558 58.488 166.817 58.488V60.488C169.281 60.488 171.088 61.0338 172.35 62.0078L173.572 60.4242ZM166.817 58.488C164.232 58.488 162.063 59.1011 160.424 60.442L161.69 61.99C162.867 61.0269 164.538 60.488 166.817 60.488V58.488ZM160.426 60.4399C158.793 61.7671 158.009 63.629 158.009 65.888H160.009C160.009 64.1364 160.59 62.8835 161.688 61.9921L160.426 60.4399ZM158.009 65.888C158.009 68.1358 158.763 69.9951 160.35 71.3262L161.636 69.7938C160.577 68.9062 160.009 67.6509 160.009 65.888H158.009ZM160.377 71.348C161.977 72.598 164.122 73.16 166.689 73.16V71.16C164.392 71.16 162.739 70.6554 161.609 69.772L160.377 71.348ZM194.542 43.424H195.542V42.424H194.542V43.424ZM194.542 47.52L195.275 48.2005L195.542 47.9127V47.52H194.542ZM193.198 49.248L192.346 48.7239L191.932 49.3966L192.491 49.9551L193.198 49.248ZM193.454 49.504L192.747 50.2111L193.583 51.0476L194.269 50.0835L193.454 49.504ZM197.806 45.024L197.236 44.2026L197.236 44.2026L197.806 45.024ZM211.118 48.992L210.187 49.356L210.892 51.1614L211.954 49.54L211.118 48.992ZM227.822 46.496L227.038 47.1167L227.045 47.1257L227.052 47.1346L227.822 46.496ZM228.91 75.616L229.491 76.4298L229.498 76.4247L228.91 75.616ZM224.814 76.576H223.814V77.576H224.814V76.576ZM223.534 49.952L222.73 50.5472L222.73 50.5472L223.534 49.952ZM214.574 50.208L215.258 50.9375L215.264 50.9319L215.27 50.9262L214.574 50.208ZM211.182 75.616L211.763 76.4297L211.776 76.4208L211.788 76.4114L211.182 75.616ZM207.086 76.576H206.086V77.576H207.086V76.576ZM205.806 49.952L206.61 49.3568L206.61 49.3568L205.806 49.952ZM193.326 75.616L193.907 76.4298L193.914 76.4247L193.326 75.616ZM189.23 76.576H188.23V77.576H189.23V76.576ZM190.23 48.16C190.23 46.7671 190.615 45.8966 191.223 45.3544C191.854 44.7927 192.899 44.424 194.542 44.424V42.424C192.644 42.424 191.033 42.8446 189.893 43.8616C188.73 44.898 188.23 46.3956 188.23 48.16H190.23ZM193.542 43.424V47.52H195.542V43.424H193.542ZM193.809 46.8395C193.22 47.4735 192.729 48.1015 192.346 48.7239L194.05 49.7721C194.349 49.2852 194.754 48.7611 195.275 48.2005L193.809 46.8395ZM192.491 49.9551L192.747 50.2111L194.161 48.7969L193.905 48.5409L192.491 49.9551ZM194.269 50.0835C195.584 48.2342 196.956 46.8315 198.376 45.8454L197.236 44.2026C195.584 45.3498 194.055 46.9337 192.639 48.9245L194.269 50.0835ZM198.376 45.8454C199.733 44.9036 201.301 44.424 203.118 44.424V42.424C200.924 42.424 198.951 43.0111 197.236 44.2026L198.376 45.8454ZM203.118 44.424C204.896 44.424 206.324 44.8467 207.459 45.6368C208.596 46.4282 209.517 47.6424 210.187 49.356L212.049 48.628C211.268 46.6296 210.131 45.0598 208.601 43.9952C207.07 42.9293 205.223 42.424 203.118 42.424V44.424ZM211.954 49.54C214.222 46.0784 217.166 44.424 220.846 44.424V42.424C216.419 42.424 212.878 44.4816 210.282 48.444L211.954 49.54ZM220.846 44.424C223.625 44.424 225.638 45.3483 227.038 47.1167L228.606 45.8753C226.763 43.5477 224.126 42.424 220.846 42.424V44.424ZM227.052 47.1346C228.532 48.9177 229.318 51.3175 229.318 54.432H231.318C231.318 50.9758 230.44 48.085 228.592 45.8574L227.052 47.1346ZM229.318 54.432V72.48H231.318V54.432H229.318ZM229.318 72.48C229.318 73.6449 228.945 74.3538 228.322 74.8073L229.498 76.4247C230.752 75.5129 231.318 74.1311 231.318 72.48H229.318ZM228.329 74.8023C227.682 75.2643 226.566 75.576 224.814 75.576V77.576C226.731 77.576 228.346 77.2477 229.491 76.4297L228.329 74.8023ZM225.814 76.576V54.752H223.814V76.576H225.814ZM225.814 54.752C225.814 52.5785 225.363 50.7408 224.338 49.3568L222.73 50.5472C223.412 51.4672 223.814 52.8295 223.814 54.752H225.814ZM224.338 49.3568C223.244 47.8807 221.556 47.224 219.502 47.224V49.224C221.118 49.224 222.117 49.7193 222.73 50.5472L224.338 49.3568ZM219.502 47.224C217.325 47.224 215.432 47.9844 213.878 49.4898L215.27 50.9262C216.447 49.7863 217.839 49.224 219.502 49.224V47.224ZM213.89 49.4785C212.29 50.9787 211.526 52.9887 211.526 55.392H213.526C213.526 53.4433 214.127 51.9973 215.258 50.9375L213.89 49.4785ZM211.526 55.392V72.48H213.526V55.392H211.526ZM211.526 72.48C211.526 73.6622 211.162 74.3738 210.576 74.8206L211.788 76.4114C212.994 75.4928 213.526 74.1138 213.526 72.48H211.526ZM210.601 74.8023C209.954 75.2643 208.838 75.576 207.086 75.576V77.576C209.003 77.576 210.618 77.2477 211.763 76.4297L210.601 74.8023ZM208.086 76.576V54.752H206.086V76.576H208.086ZM208.086 54.752C208.086 52.5785 207.635 50.7408 206.61 49.3568L205.002 50.5472C205.684 51.4672 206.086 52.8295 206.086 54.752H208.086ZM206.61 49.3568C205.516 47.8807 203.828 47.224 201.774 47.224V49.224C203.39 49.224 204.389 49.7193 205.002 50.5472L206.61 49.3568ZM201.774 47.224C199.541 47.224 197.618 48.0375 196.064 49.6399L197.5 51.0321C198.677 49.8185 200.082 49.224 201.774 49.224V47.224ZM196.064 49.6399C194.509 51.2434 193.734 53.2249 193.734 55.52H195.734C195.734 53.7191 196.324 52.2446 197.5 51.0321L196.064 49.6399ZM193.734 55.52V72.48H195.734V55.52H193.734ZM193.734 72.48C193.734 73.6449 193.361 74.3538 192.738 74.8073L193.914 76.4247C195.168 75.5129 195.734 74.1311 195.734 72.48H193.734ZM192.745 74.8023C192.098 75.2643 190.982 75.576 189.23 75.576V77.576C191.147 77.576 192.762 77.2477 193.907 76.4297L192.745 74.8023ZM190.23 76.576V48.16H188.23V76.576H190.23ZM240.396 73.632L239.733 74.381L239.74 74.3872L240.396 73.632ZM240.588 58.08L241.229 58.8471L241.237 58.8402L240.588 58.08ZM259.98 59.424L259.241 60.0978L259.946 60.8716L260.687 60.1311L259.98 59.424ZM260.236 59.168L260.943 59.8751L261.62 59.1981L260.973 58.4923L260.236 59.168ZM258.636 57.568H257.636V58.0041L257.955 58.3008L258.636 57.568ZM241.164 53.344L240.716 54.2384L241.582 54.6711L242.043 53.8206L241.164 53.344ZM239.436 52L238.622 52.5812L238.646 52.6146L238.672 52.6459L239.436 52ZM240.524 46.944L241.188 47.6914L241.195 47.6847L241.203 47.6778L240.524 46.944ZM245.068 44.384L244.751 43.4353L244.745 43.4375L245.068 44.384ZM260.62 46.432L259.963 47.1863L259.97 47.1922L260.62 46.432ZM262.86 75.552L262.235 74.7711L262.235 74.7711L262.86 75.552ZM258.828 76.576H257.828V77.576H258.828V76.576ZM258.828 73.568L258.104 72.8775L257.828 73.1673V73.568H258.828ZM260.3 71.904L261.194 72.3512L261.516 71.7065L261.007 71.1969L260.3 71.904ZM260.044 71.648L260.751 70.9409L259.981 70.1715L259.279 71.0029L260.044 71.648ZM256.46 70.496L255.874 69.6852L255.863 69.6933L256.46 70.496ZM256.524 61.216L255.913 62.0078L255.913 62.0078L256.524 61.216ZM244.62 61.216L245.25 61.9921L245.253 61.99L244.62 61.216ZM244.556 70.56L243.913 71.3262L243.926 71.3373L243.94 71.348L244.556 70.56ZM249.292 75.576C245.806 75.576 243.092 74.6481 241.051 72.8768L239.74 74.3872C242.222 76.5412 245.438 77.576 249.292 77.576V75.576ZM241.058 72.883C239.073 71.1267 238.068 68.8274 238.068 65.888H236.068C236.068 69.3486 237.281 72.212 239.733 74.381L241.058 72.883ZM238.068 65.888C238.068 62.9212 239.125 60.6071 241.229 58.8471L239.946 57.3129C237.357 59.4782 236.068 62.3695 236.068 65.888H238.068ZM241.237 58.8402C243.362 57.0247 246.206 56.072 249.868 56.072V54.072C245.849 54.072 242.507 55.1247 239.938 57.3198L241.237 58.8402ZM249.868 56.072C253.696 56.072 256.794 57.4142 259.241 60.0978L260.718 58.7502C257.875 55.6311 254.231 54.072 249.868 54.072V56.072ZM260.687 60.1311L260.943 59.8751L259.528 58.4609L259.272 58.7169L260.687 60.1311ZM260.973 58.4923C260.482 57.9575 259.93 57.4051 259.316 56.8352L257.955 58.3008C258.536 58.8402 259.05 59.3545 259.498 59.8437L260.973 58.4923ZM259.636 57.568V54.88H257.636V57.568H259.636ZM259.636 54.88C259.636 52.4786 258.872 50.4938 257.246 49.0714L255.929 50.5766C257.034 51.5435 257.636 52.9294 257.636 54.88H259.636ZM257.246 49.0714C255.638 47.6648 253.429 47.032 250.764 47.032V49.032C253.132 49.032 254.806 49.5939 255.929 50.5766L257.246 49.0714ZM250.764 47.032C248.392 47.032 246.297 47.5012 244.519 48.485C242.736 49.472 241.326 50.9466 240.284 52.8674L242.043 53.8206C242.921 52.2001 244.071 51.0187 245.488 50.235C246.91 49.4482 248.655 49.032 250.764 49.032V47.032ZM241.611 52.4496C241.043 52.1657 240.576 51.8002 240.199 51.3541L238.672 52.6459C239.233 53.3092 239.919 53.8396 240.716 54.2384L241.611 52.4496ZM240.249 51.4188C239.916 50.9516 239.796 50.5532 239.796 50.208H237.796C237.796 51.0574 238.102 51.8537 238.622 52.5812L240.249 51.4188ZM239.796 50.208C239.796 49.4295 240.173 48.5931 241.188 47.6914L239.859 46.1966C238.57 47.3429 237.796 48.6825 237.796 50.208H239.796ZM241.203 47.6778C242.229 46.7277 243.612 45.9368 245.39 45.3305L244.745 43.4375C242.769 44.1112 241.122 45.0269 239.844 46.2102L241.203 47.6778ZM245.384 45.3327C247.198 44.7278 249.097 44.424 251.083 44.424V42.424C248.889 42.424 246.777 42.7602 244.751 43.4353L245.384 45.3327ZM251.083 44.424C254.976 44.424 257.893 45.385 259.963 47.1863L261.276 45.6777C258.738 43.4683 255.298 42.424 251.083 42.424V44.424ZM259.97 47.1922C262.06 48.9785 263.14 51.4551 263.14 54.752H265.14C265.14 50.9662 263.872 47.8962 261.269 45.6718L259.97 47.1922ZM263.14 54.752V72.288H265.14V54.752H263.14ZM263.14 72.288C263.14 73.5959 262.772 74.3415 262.235 74.7711L263.484 76.3329C264.654 75.3971 265.14 73.9668 265.14 72.288H263.14ZM262.235 74.7711C261.644 75.2437 260.576 75.576 258.828 75.576V77.576C260.748 77.576 262.368 77.2257 263.484 76.3329L262.235 74.7711ZM259.828 76.576V73.568H257.828V76.576H259.828ZM259.551 74.2585C260.002 73.7857 260.359 73.4018 260.616 73.1106C260.745 72.9655 260.855 72.8361 260.943 72.7259C261.014 72.6359 261.121 72.4969 261.194 72.3512L259.405 71.4568C259.435 71.3964 259.449 71.3907 259.376 71.4821C259.32 71.5533 259.235 71.6532 259.119 71.7854C258.885 72.0488 258.549 72.4116 258.104 72.8775L259.551 74.2585ZM261.007 71.1969L260.751 70.9409L259.336 72.3551L259.592 72.6111L261.007 71.1969ZM259.279 71.0029C256.701 74.0575 253.399 75.576 249.292 75.576V77.576C253.973 77.576 257.84 75.8092 260.808 72.2931L259.279 71.0029ZM250.252 73.16C253.024 73.16 255.331 72.5802 257.056 71.2987L255.863 69.6933C254.601 70.6305 252.77 71.16 250.252 71.16V73.16ZM257.045 71.3067C258.852 70.0015 259.764 68.1582 259.764 65.888H257.764C257.764 67.5432 257.139 68.7718 255.874 69.6853L257.045 71.3067ZM259.764 65.888C259.764 63.63 258.884 61.7743 257.134 60.4242L255.913 62.0078C257.149 62.9616 257.764 64.2206 257.764 65.888H259.764ZM257.134 60.4242C255.41 59.0942 253.121 58.488 250.38 58.488V60.488C252.844 60.488 254.65 61.0338 255.913 62.0078L257.134 60.4242ZM250.38 58.488C247.795 58.488 245.625 59.1011 243.986 60.442L245.253 61.99C246.43 61.0269 248.1 60.488 250.38 60.488V58.488ZM243.989 60.4399C242.355 61.7671 241.572 63.629 241.572 65.888H243.572C243.572 64.1364 244.153 62.8835 245.25 61.9921L243.989 60.4399ZM241.572 65.888C241.572 68.1358 242.326 69.9951 243.913 71.3262L245.198 69.7938C244.14 68.9062 243.572 67.6509 243.572 65.888H241.572ZM243.94 71.348C245.54 72.598 247.685 73.16 250.252 73.16V71.16C247.954 71.16 246.302 70.6554 245.171 69.772L243.94 71.348Z" fill="#F5F5F5" mask="url(#path-3-outside-1_5_33)"/>
<mask id="path-5-outside-2_5_33" maskUnits="userSpaceOnUse" x="254" y="23" width="29" height="18" fill="black">
<rect fill="white" x="254" y="23" width="29" height="18"/>
<path d="M260.38 27.32H255.56C255.56 25.7733 256.26 25 257.66 25H267.88C267.88 26.5467 267.173 27.32 265.76 27.32H263.06V37.2C263.06 37.84 262.833 38.3333 262.38 38.68C261.927 39.0133 261.26 39.18 260.38 39.18V27.32ZM275.07 39.18C274.43 39.18 273.997 38.8867 273.77 38.3L268.67 25.08C268.803 25.0133 268.983 24.9533 269.21 24.9C269.437 24.8467 269.637 24.82 269.81 24.82C270.863 24.82 271.543 25.2467 271.85 26.1L274.93 34.72L274.45 36L274.67 36.08L278.27 26.1C278.59 25.2467 279.27 24.82 280.31 24.82C280.483 24.82 280.683 24.8467 280.91 24.9C281.137 24.9533 281.323 25.0133 281.47 25.08L276.37 38.3C276.263 38.58 276.097 38.8 275.87 38.96C275.657 39.1067 275.39 39.18 275.07 39.18Z"/>
</mask>
<path d="M260.38 27.32H255.56C255.56 25.7733 256.26 25 257.66 25H267.88C267.88 26.5467 267.173 27.32 265.76 27.32H263.06V37.2C263.06 37.84 262.833 38.3333 262.38 38.68C261.927 39.0133 261.26 39.18 260.38 39.18V27.32ZM275.07 39.18C274.43 39.18 273.997 38.8867 273.77 38.3L268.67 25.08C268.803 25.0133 268.983 24.9533 269.21 24.9C269.437 24.8467 269.637 24.82 269.81 24.82C270.863 24.82 271.543 25.2467 271.85 26.1L274.93 34.72L274.45 36L274.67 36.08L278.27 26.1C278.59 25.2467 279.27 24.82 280.31 24.82C280.483 24.82 280.683 24.8467 280.91 24.9C281.137 24.9533 281.323 25.0133 281.47 25.08L276.37 38.3C276.263 38.58 276.097 38.8 275.87 38.96C275.657 39.1067 275.39 39.18 275.07 39.18Z" fill="url(#paint2_linear_5_33)"/>
<path d="M260.38 27.32H261.38V26.32H260.38V27.32ZM255.56 27.32H254.56V28.32H255.56V27.32ZM267.88 25H268.88V24H267.88V25ZM263.06 27.32V26.32H262.06V27.32H263.06ZM262.38 38.68L262.972 39.4857L262.98 39.4801L262.987 39.4744L262.38 38.68ZM260.38 39.18H259.38V40.18H260.38V39.18ZM260.38 26.32H255.56V28.32H260.38V26.32ZM256.56 27.32C256.56 26.6775 256.708 26.3824 256.826 26.2511C256.928 26.1387 257.141 26 257.66 26V24C256.779 24 255.942 24.248 255.344 24.9089C254.762 25.5509 254.56 26.4158 254.56 27.32H256.56ZM257.66 26H267.88V24H257.66V26ZM266.88 25C266.88 25.6404 266.732 25.9341 266.612 26.0654C266.507 26.1797 266.288 26.32 265.76 26.32V28.32C266.645 28.32 267.486 28.0737 268.088 27.4146C268.675 26.7726 268.88 25.9063 268.88 25H266.88ZM265.76 26.32H263.06V28.32H265.76V26.32ZM262.06 27.32V37.2H264.06V27.32H262.06ZM262.06 37.2C262.06 37.5718 261.946 37.753 261.773 37.8856L262.987 39.4744C263.721 38.9137 264.06 38.1082 264.06 37.2H262.06ZM261.788 37.8743C261.578 38.0282 261.159 38.18 260.38 38.18V40.18C261.361 40.18 262.275 39.9985 262.972 39.4857L261.788 37.8743ZM261.38 39.18V27.32H259.38V39.18H261.38ZM273.77 38.3L272.837 38.6599L272.837 38.6604L273.77 38.3ZM268.67 25.08L268.223 24.1856L267.41 24.592L267.737 25.4399L268.67 25.08ZM269.21 24.9L269.439 25.8734L269.439 25.8734L269.21 24.9ZM271.85 26.1L272.792 25.7635L272.791 25.7618L271.85 26.1ZM274.93 34.72L275.866 35.0711L275.995 34.7283L275.872 34.3835L274.93 34.72ZM274.45 36L273.514 35.6489L273.159 36.5946L274.108 36.9398L274.45 36ZM274.67 36.08L274.328 37.0198L275.271 37.3624L275.611 36.4193L274.67 36.08ZM278.27 26.1L277.334 25.7488L277.329 25.7607L278.27 26.1ZM281.47 25.08L282.403 25.4399L282.743 24.5599L281.884 24.1696L281.47 25.08ZM276.37 38.3L275.437 37.9401L275.436 37.944L276.37 38.3ZM275.87 38.96L276.437 39.7841L276.447 39.777L275.87 38.96ZM275.07 38.18C274.905 38.18 274.843 38.1437 274.826 38.1319C274.81 38.121 274.758 38.0819 274.703 37.9396L272.837 38.6604C273.009 39.1048 273.287 39.5057 273.705 39.7881C274.12 40.0696 274.595 40.18 275.07 40.18V38.18ZM274.703 37.9401L269.603 24.7201L267.737 25.4399L272.837 38.6599L274.703 37.9401ZM269.117 25.9744C269.154 25.9562 269.251 25.9177 269.439 25.8734L268.981 23.9266C268.716 23.989 268.453 24.0705 268.223 24.1856L269.117 25.9744ZM269.439 25.8734C269.615 25.8321 269.735 25.82 269.81 25.82V23.82C269.539 23.82 269.259 23.8612 268.981 23.9266L269.439 25.8734ZM269.81 25.82C270.206 25.82 270.44 25.9004 270.579 25.9871C270.705 26.0661 270.821 26.1935 270.909 26.4382L272.791 25.7618C272.573 25.1532 272.196 24.6405 271.642 24.2929C271.1 23.953 270.467 23.82 269.81 23.82V25.82ZM270.908 26.4365L273.988 35.0565L275.872 34.3835L272.792 25.7635L270.908 26.4365ZM273.994 34.3689L273.514 35.6489L275.386 36.3511L275.866 35.0711L273.994 34.3689ZM274.108 36.9398L274.328 37.0198L275.012 35.1402L274.792 35.0602L274.108 36.9398ZM275.611 36.4193L279.211 26.4393L277.329 25.7607L273.729 35.7407L275.611 36.4193ZM279.206 26.4511C279.3 26.2006 279.422 26.0684 279.552 25.9871C279.692 25.8992 279.924 25.82 280.31 25.82V23.82C279.657 23.82 279.029 23.9541 278.489 24.2929C277.938 24.6383 277.56 25.1461 277.334 25.7489L279.206 26.4511ZM280.31 25.82C280.385 25.82 280.506 25.8321 280.681 25.8734L281.139 23.9266C280.861 23.8612 280.582 23.82 280.31 23.82V25.82ZM280.681 25.8734C280.87 25.9178 280.989 25.9597 281.056 25.9904L281.884 24.1696C281.658 24.067 281.404 23.9889 281.139 23.9266L280.681 25.8734ZM280.537 24.7201L275.437 37.9401L277.303 38.6599L282.403 25.4399L280.537 24.7201ZM275.436 37.944C275.394 38.0538 275.345 38.1069 275.293 38.143L276.447 39.777C276.849 39.4931 277.133 39.1062 277.305 38.656L275.436 37.944ZM275.304 38.136C275.293 38.1435 275.236 38.18 275.07 38.18V40.18C275.544 40.18 276.021 40.0699 276.437 39.784L275.304 38.136Z" fill="#F5F5F5" mask="url(#path-5-outside-2_5_33)"/>
<defs>
<linearGradient id="paint0_linear_5_33" x1="8.5" y1="17.5" x2="105.417" y2="92.0833" gradientUnits="userSpaceOnUse">
<stop stop-color="#AF2CFF"/>
<stop offset="1" stop-color="#E6D7FE"/>
</linearGradient>
<linearGradient id="paint1_linear_5_33" x1="93" y1="21" x2="394.972" y2="132.287" gradientUnits="userSpaceOnUse">
<stop stop-color="#AF2CFF"/>
<stop offset="0.802815" stop-color="#E4DBF2"/>
</linearGradient>
<linearGradient id="paint2_linear_5_33" x1="251" y1="21.759" x2="310.632" y2="34.5146" gradientUnits="userSpaceOnUse">
<stop stop-color="#AF2CFF"/>
<stop offset="0.802815" stop-color="#E4DBF2"/>
</linearGradient>
</defs>
</svg>
