<svg width="72" height="72" viewBox="0 0 84 84" fill="none" xmlns="http://www.w3.org/2000/svg">
<path d="M63.3174 35.4336H20.6829L16.9627 56.5913C16.8268 57.3654 17.3562 58.0979 18.1342 58.2127C21.3738 58.692 29.9057 60.3935 41.3811 66.0332C41.7714 66.2248 42.2289 66.2248 42.6192 66.0332C54.0946 60.3935 62.6265 58.692 65.8661 58.2127C66.6441 58.0979 67.1741 57.3654 67.0376 56.5913L63.3174 35.4336Z" fill="#33393A"></path>
<path d="M67.0381 56.5913L63.3179 35.4336H53.6484L57.9679 60.0007C61.6183 58.94 64.3349 58.4395 65.8666 58.2127C66.6446 58.0979 67.174 57.3654 67.0381 56.5913Z" fill="#2A2F33"></path>
<path d="M41.7943 17.8402L1.58231 33.785C1.11319 33.9709 1.11319 34.6348 1.58231 34.8207L41.7943 50.7655C41.9263 50.8174 42.0737 50.8174 42.2057 50.7655L82.4177 34.8207C82.8868 34.6348 82.8868 33.9709 82.4177 33.785L42.2057 17.8402C42.0737 17.7876 41.9263 17.7876 41.7943 17.8402Z" fill="#464C50"></path>
<path d="M82.4177 33.7847L70.7641 29.1641L35.4977 43.1472C34.8915 43.3875 34.2154 43.3875 33.6091 43.1472L5.78961 32.1165L1.58231 33.7847C1.11319 33.9706 1.11319 34.6345 1.58231 34.8204L29.0403 45.7081L41.7949 50.7652C41.9269 50.8171 42.0737 50.8171 42.2057 50.7652L82.4177 34.8204C82.8868 34.6345 82.8868 33.9706 82.4177 33.7847Z" fill="#2A2F33"></path>
<path d="M72.6761 46.5455V50.0363L71.4059 62.2116C71.3656 62.5993 71.67 62.937 72.0603 62.937H78.2491C78.6394 62.937 78.9438 62.5993 78.9028 62.2116L77.6333 50.0363V46.5455C77.6333 45.9777 77.1731 45.5176 76.606 45.5176H73.7035C73.1356 45.5176 72.6761 45.9777 72.6761 46.5455Z" fill="#FCB038"></path>
<path d="M72.6758 46.5455V50.0363H77.6329V46.5455C77.6329 45.9777 77.1734 45.5176 76.6056 45.5176H73.7031C73.1353 45.5176 72.6758 45.9777 72.6758 46.5455Z" fill="#F3E8D7"></path>
<path d="M82.8713 32.6415L42.6587 16.6967C42.2338 16.5282 41.766 16.5282 41.3411 16.6967L1.12857 32.6415C0.44284 32.9132 0 33.5656 0 34.3033C0 35.0409 0.44284 35.6933 1.12857 35.9651L41.3411 51.9092C41.5532 51.9938 41.7769 52.0361 41.9999 52.0361C42.2229 52.0361 42.4466 51.9938 42.6587 51.9092L73.9241 39.5129V44.2874H73.703C72.4578 44.2874 71.4452 45.3006 71.4452 46.5451V49.9725L70.1821 62.0836C70.127 62.6149 70.3 63.1468 70.6576 63.5435C71.0146 63.9402 71.526 64.1677 72.0598 64.1677H78.2487C78.7825 64.1677 79.2939 63.9402 79.6509 63.5435C80.0085 63.1468 80.1815 62.6149 80.1264 62.0836L78.8633 49.9725V46.5451C78.8633 45.3006 77.8507 44.2874 76.6055 44.2874H76.385V38.5369L82.8713 35.9651C83.557 35.6927 83.9998 35.0403 83.9998 34.3033C83.9998 33.5656 83.557 32.9132 82.8713 32.6415ZM72.6956 61.7068L73.7844 51.2671H76.5241L77.6129 61.7068H72.6956ZM76.4023 48.8061H73.9055V46.7483H76.4023V48.8061ZM74.9796 36.4463L41.7314 33.0786C41.0546 33.0113 40.4522 33.5028 40.3836 34.179C40.3151 34.8551 40.8073 35.4588 41.4834 35.5273L70.011 38.417L41.9999 49.5233L3.61449 34.3033L41.9999 19.0827L80.3853 34.3033L74.9796 36.4463Z" fill="black"></path>
<path d="M66.6717 47.4C66.5537 46.7309 65.9154 46.2842 65.2464 46.4015C64.5773 46.5188 64.13 47.1571 64.2479 47.8262L65.8263 56.8047C65.834 56.8496 65.8251 56.8913 65.7981 56.9284C65.7796 56.9541 65.745 56.9867 65.6866 56.9957C62.4759 57.4706 53.7472 59.1939 42.0777 64.929C42.0296 64.9528 41.9726 64.9521 41.9245 64.929C30.2549 59.1939 21.5263 57.47 18.3149 56.9957C18.2565 56.9867 18.2226 56.9541 18.2034 56.9284C18.1771 56.8913 18.1675 56.8496 18.1752 56.8041L19.7331 47.9473C19.8504 47.2776 19.4037 46.6399 18.734 46.522C18.0649 46.4047 17.4266 46.8514 17.3087 47.5211L15.7514 56.3779C15.6277 57.0822 15.7898 57.7885 16.2077 58.3678C16.6262 58.9484 17.2465 59.3253 17.9547 59.4297C21.0514 59.888 29.4807 61.5555 40.8395 67.1375C41.2029 67.3163 41.6015 67.4054 42.0008 67.4054C42.4 67.4054 42.7986 67.3163 43.1626 67.1375C54.5208 61.5555 62.9501 59.888 66.0468 59.4297C66.755 59.3253 67.3753 58.9478 67.7938 58.3678C68.2117 57.7885 68.3738 57.0816 68.2501 56.3779L66.6717 47.4Z" fill="black"></path>
</svg>